<svg xmlns="http://www.w3.org/2000/svg" xmlns:xlink="http://www.w3.org/1999/xlink" version="1.1" id="Two_Tone" x="0px" y="0px" viewBox="0 0 24 24" style="enable-background:new 0 0 24 24;" xml:space="preserve" width="50" height="50" fill="#000000">
<path d="M23.656,15.967c0.236,0.478,0.34,0.95,0.344,1.408c0.022,2.11-2.053,3.929-2.935,4.703l-0.178,0.157  C20.151,22.901,18.501,24,18.501,24s-1.65-1.098-2.386-1.765l-0.179-0.157c-0.882-0.774-2.957-2.593-2.935-4.703  c0.005-0.458,0.108-0.93,0.344-1.408c0.579-1.171,1.616-1.965,2.956-1.967c0.845-0.001,1.856,0.5,2.2,1.066  c0.378-0.566,1.355-1.067,2.2-1.066C22.041,14.002,23.078,14.796,23.656,15.967z"/>
<path d="M11.239,19H5V9h14l0,3.332C19.55,12.121,20.135,12,20.699,12c0.001,0,0.003,0,0.004,0c0.101,0,0.198,0.016,0.297,0.022V5  c0-1.103-0.897-2-2-2h-1V1h-2v2H8V1H6v2H5C3.897,3,3,3.897,3,5v14c0,1.103,0.897,2,2,2h7.22C11.814,20.404,11.459,19.736,11.239,19z   M5,5h14v2H5V5z"/>
<rect x="4" y="4" style="opacity:0.3;" width="16" height="4"/>
</svg>