<svg xmlns="http://www.w3.org/2000/svg" xmlns:xlink="http://www.w3.org/1999/xlink" version="1.1" id="Layer_1" x="0px" y="0px" viewBox="0 0 24 24" style="enable-background:new 0 0 24 24;" xml:space="preserve" width="50" height="50" fill="#000000">
<g id="Filled" style="display:none;">
	<path style="display:inline;" d="M10,3v8H6l6,6l6-6h-4V3c0-0.6-0.4-1-1-1h-2C10.4,2,10,2.4,10,3z"/>
	<line style="display:inline;fill:none;stroke:#000000;stroke-width:2;stroke-miterlimit:10;" x1="2" y1="21" x2="22" y2="21"/>
</g>
<g id="Outlined" style="display:none;">
	<path style="display:inline;fill:none;stroke:#000000;stroke-width:2;stroke-miterlimit:10;" d="M10,3.5V11H7l5,5l5-5h-3V3.5   C14,3.2,13.8,3,13.5,3h-3C10.2,3,10,3.2,10,3.5z"/>
	<line style="display:inline;fill:none;stroke:#000000;stroke-width:2;stroke-miterlimit:10;" x1="2" y1="21" x2="22" y2="21"/>
</g>
<g id="Rounded" style="display:none;">
	
		<line style="display:inline;fill:none;stroke:#000000;stroke-width:2;stroke-linecap:round;stroke-miterlimit:10;" x1="3" y1="21" x2="21" y2="21"/>
	<circle style="display:inline;" cx="12" cy="16" r="1"/>
	<circle style="display:inline;" cx="17.5" cy="11.5" r="0.5"/>
	<circle style="display:inline;" cx="6.5" cy="11.5" r="0.5"/>
	<path style="display:inline;" d="M14,11V3c0-0.6-0.4-1-1-1h-1v14l0.7,0.7l5.2-4.9L17.5,11H14z"/>
	<path style="display:inline;" d="M10,11V3c0-0.6,0.4-1,1-1h1v14l-0.7,0.7l-5.2-4.9L6.5,11H10z"/>
</g>
<g id="Two-Tone">
	<g style="opacity:0.13;">
		<path d="M10,3.5V11H7l5,5l5-5h-3V3.5C14,3.2,13.8,3,13.5,3h-3C10.2,3,10,3.2,10,3.5z"/>
	</g>
	<path d="M12,17.4L4.6,10H9V3.5C9,2.7,9.7,2,10.5,2h3C14.3,2,15,2.7,15,3.5V10h4.4L12,17.4z M9.4,12l2.6,2.6l2.6-2.6H13V4h-2v8H9.4z   "/>
	<rect x="2" y="20" width="20" height="2"/>
</g>
<g id="Sharp_3_" style="display:none;">
	<polygon style="display:inline;" points="10,2 10,11 6,11 12,17 18,11 14,11 14,2  "/>
	<line style="display:inline;fill:none;stroke:#000000;stroke-width:2;stroke-miterlimit:10;" x1="2" y1="21" x2="22" y2="21"/>
</g>
</svg>