<svg xmlns="http://www.w3.org/2000/svg" xmlns:xlink="http://www.w3.org/1999/xlink" version="1.1" id="Two_Tone" x="0px" y="0px" viewBox="0 0 24 24" style="enable-background:new 0 0 24 24;" xml:space="preserve" width="50" height="50" fill="#000000">
<path style="opacity:0.3;enable-background:new    ;" d="M16,10v4H8v-4H4v9c0,0.6,0.4,1,1,1h14c0.6,0,1-0.4,1-1v-9H16z"/>
<path d="M19,21H5c-1.1,0-2-0.9-2-2V9h7v2H5v8h14v-8h-5V9h7v10C21,20.1,20.1,21,19,21z"/>
<path d="M18,10h-2V5H8v5H6V5c0-1.1,0.9-2,2-2h8c1.1,0,2,0.9,2,2V10z"/>
<path d="M15,15H9c-1.1,0-2-0.9-2-2v-3h2v3h6v-3h2v3C17,14.1,16.1,15,15,15z"/>
<rect x="2" y="11" width="2" height="2"/>
<rect x="20" y="11" width="2" height="2"/>
<rect x="15" y="17" width="2" height="2"/>
<rect x="11" y="17" width="2" height="2"/>
<rect x="7" y="17" width="2" height="2"/>
</svg>