<svg xmlns="http://www.w3.org/2000/svg" xmlns:xlink="http://www.w3.org/1999/xlink" version="1.1" id="Two_x5F_Tone" x="0px" y="0px" viewBox="0 0 24 24" style="enable-background:new 0 0 24 24;" xml:space="preserve" width="50" height="50" fill="#000000">
<path d="M9,3H5C3.897,3,3,3.897,3,5v4c0,1.103,0.897,2,2,2h4c1.103,0,2-0.897,2-2V5C11,3.897,10.103,3,9,3z M8,8H6V6h2V8z"/>
<path d="M9,13H5c-1.103,0-2,0.897-2,2v4c0,1.103,0.897,2,2,2h4c1.103,0,2-0.897,2-2v-4C11,13.897,10.103,13,9,13z M7,18  c-0.552,0-1-0.448-1-1c0-0.552,0.448-1,1-1s1,0.448,1,1C8,17.552,7.552,18,7,18z"/>
<path d="M15,21h4c1.103,0,2-0.897,2-2v-4c0-1.103-0.897-2-2-2h-4c-1.103,0-2,0.897-2,2v4C13,20.103,13.897,21,15,21z M16,16h2v2h-2  V16z"/>
<path d="M15,11h4c1.103,0,2-0.897,2-2V5c0-1.103-0.897-2-2-2h-4c-1.103,0-2,0.897-2,2v4C13,10.103,13.897,11,15,11z M17,6  c0.552,0,1,0.448,1,1c0,0.552-0.448,1-1,1s-1-0.448-1-1C16,6.448,16.448,6,17,6z"/>
</svg>