<svg xmlns="http://www.w3.org/2000/svg" viewBox="0 0 24 24" width="50" height="50" fill="#000000">
    <path d="M 5 3 C 4.7255584 3 4.464854 3.0577836 4.2265625 3.1582031 C 3.7454353 3.3609573 3.3609573 3.7454353 3.1582031 4.2265625 C 3.1082327 4.3451402 3.0674441 4.4688029 3.0410156 4.5976562 C 3.0408867 4.5982727 3.041144 4.5989927 3.0410156 4.5996094 C 3.0145833 4.7291159 3 4.8627874 3 5 L 3 19 C 3 19.136633 3.0140817 19.270982 3.0410156 19.400391 C 3.0411432 19.401016 3.0408874 19.401719 3.0410156 19.402344 C 3.0679423 19.531095 3.1073942 19.654638 3.1582031 19.773438 C 3.3609573 20.254565 3.7454353 20.639043 4.2265625 20.841797 C 4.3451402 20.891767 4.4688029 20.932556 4.5976562 20.958984 C 4.5982727 20.959113 4.5989927 20.958856 4.5996094 20.958984 C 4.7291159 20.985417 4.8627874 21 5 21 L 19 21 C 19.273266 21 19.5347 20.943901 19.773438 20.841797 C 20.254565 20.639043 20.639043 20.254565 20.841797 19.773438 C 20.943901 19.5347 21 19.273266 21 19 L 21 5 C 21 4.7267343 20.943901 4.4652998 20.841797 4.2265625 C 20.639043 3.7454353 20.254565 3.3609573 19.773438 3.1582031 C 19.654638 3.1073942 19.531095 3.0679423 19.402344 3.0410156 C 19.401719 3.0408874 19.401016 3.0411432 19.400391 3.0410156 C 19.270982 3.0140817 19.136633 3 19 3 L 5 3 z M 6 6 L 7 6 C 13.065 6 18 10.935 18 17 L 18 18 L 16 18 L 16 17 C 16 12.037 11.963 8 7 8 L 6 8 L 6 6 z M 6 10 L 7 10 C 10.859 10 14 13.141 14 17 L 14 18 L 12 18 L 12 17 C 12 14.243 9.757 12 7 12 L 6 12 L 6 10 z M 7.5 15 C 8.328 15 9 15.672 9 16.5 C 9 17.328 8.328 18 7.5 18 C 6.672 18 6 17.328 6 16.5 C 6 15.672 6.672 15 7.5 15 z"/>
</svg>